{"title":"Hawaii Five-0 S01E16 E Malama To Protect HDTV XviD-FQM","uid":6159691,"size":367057046,"categoryP":"video","categoryS":"tv_shows","magnet":"?xt=urn:btih:e1789c7965f54de6d270dab1b8bf1bacdca6966a&amp;dn=Hawaii+Five-0+S01E16+E+Malama+To+Protect+HDTV+XviD-FQM&amp;tr=udp%3A%2F%2Ftracker.openbittorrent.com%3A80&amp;tr=udp%3A%2F%2Fopen.demonii.com%3A1337&amp;tr=udp%3A%2F%2Ftracker.coppersurfer.tk%3A6969&amp;tr=udp%3A%2F%2Fexodus.desync.com%3A6969","seeders":0,"leechers":1,"uploader":"TheCloon","files":-1,"time":1297123359,"description":"### TheCloon ###\n\nFeb 7, 2011\n\nHawaii Five-0 S01E16 E Malama To Protect HDTV XviD-FQM\n\nEpisode 16, Season 1 Plot:\nWhen the sole witness in a high-profile murder case disappears, Five-0 must head into the jungle to locate and protect her from assassins who are closing in fast.\n\n[Video Information]\n\nFormat                           : AVI\nFormat/Info                      : Audio Video Interleave\nFile size                        : 350 MiB\nDuration                         : 42mn 51s\nOverall bit rate                 : 1 142 Kbps\nWriting application              : transcode-1.0.4\n\nVideo\nID                               : 0\nFormat                           : MPEG-4 Visual\nFormat profile                   : Advanced Simple@L5\nFormat settings, BVOP            : 2\nFormat settings, QPel            : No\nFormat settings, GMC             : No warppoints\nFormat settings, Matrix          : Default (H.263)\nCodec ID                         : XVID\nCodec ID/Hint                    : XviD\nDuration                         : 42mn 51s\nBit rate                         : 971 Kbps\nWidth                            : 624 pixels\nHeight                           : 352 pixels\nDisplay aspect ratio             : 16:9\nFrame rate                       : 23.976 fps\nColor space                      : YUV\nChroma subsampling               : 4:2:0\nBit depth                        : 8 bits\nScan type                        : Progressive\nCompression mode                 : Lossy\nBits/(Pixel*Frame)               : 0.184\nStream size                      : 298 MiB (85%)\nWriting library                  : XviD 1.2.1 (UTC 2008-12-04)\n\nAudio\nID                               : 1\nFormat                           : MPEG Audio\nFormat version                   : Version 1\nFormat profile                   : Layer 3\nCodec ID                         : 55\nCodec ID/Hint                    : MP3\nDuration                         : 42mn 51s\nBit rate mode                    : Variable\nBit rate                         : 128 Kbps\nChannel(s)                       : 2 channels\nSampling rate                    : 48.0 KHz\nCompression mode                 : Lossy\nStream size                      : 48.4 MiB (14%)\nAlignment                        : Aligned on interleaves\nInterleave, duration             : 24 ms (0.58 video frame)\n\n\n\n[Screenshots]  &lt;a href=&quot;\nhttp://bayimg.com/MadAOAaDM&quot; rel=&quot;nofollow&quot; target=&quot;_NEW&quot;&gt;\nhttp://bayimg.com/MadAOAaDM&lt;/a&gt; &lt;a href=&quot;\nhttp://bayimg.com/MADapAADm&quot; rel=&quot;nofollow&quot; target=&quot;_NEW&quot;&gt;\nhttp://bayimg.com/MADapAADm&lt;/a&gt;\n\n[TVRage Info URL] &lt;a href=&quot;\nhttp://www.tvrage.com/Hawaii_Five-0&quot; rel=&quot;nofollow&quot; target=&quot;_NEW&quot;&gt;\nhttp://www.tvrage.com/Hawaii_Five-0&lt;/a&gt;\n","torrent":{"xt":"urn:btih:e1789c7965f54de6d270dab1b8bf1bacdca6966a","amp;dn":"Hawaii+Five-0+S01E16+E+Malama+To+Protect+HDTV+XviD-FQM","amp;tr":["udp%3A%2F%2Ftracker.openbittorrent.com%3A80","udp%3A%2F%2Fopen.demonii.com%3A1337","udp%3A%2F%2Ftracker.coppersurfer.tk%3A6969","udp%3A%2F%2Fexodus.desync.com%3A6969"],"infoHash":"e1789c7965f54de6d270dab1b8bf1bacdca6966a","infoHashBuffer":{"type":"Buffer","data":[225,120,156,121,101,245,77,230,210,112,218,177,184,191,27,172,220,166,150,106]},"announce":[],"urlList":[]}}